<svg width="1050" height="600" viewBox="0 0 1050 600" fill="none" xmlns="http://www.w3.org/2000/svg">
<rect width="1050" height="600" fill="#F8F8F8"/>
<path d="M798.297 199.771H250.703V484.917H798.297V199.771Z" fill="#3F3D56"/>
<path d="M816.648 259.675C823.339 259.675 828.762 255.321 828.762 249.95C828.762 244.578 823.339 240.224 816.648 240.224C809.958 240.224 804.534 244.578 804.534 249.95C804.534 255.321 809.958 259.675 816.648 259.675Z" stroke="#3F3D56" stroke-width="2" stroke-miterlimit="10"/>
<path d="M208.301 219.47C214.991 219.47 220.415 215.115 220.415 209.744C220.415 204.373 214.991 200.019 208.301 200.019C201.61 200.019 196.187 204.373 196.187 209.744C196.187 215.115 201.61 219.47 208.301 219.47Z" stroke="#3F3D56" stroke-width="2" stroke-miterlimit="10"/>
<path opacity="0.3" d="M492.471 256.728H422.213V313.133H492.471V256.728Z" fill="#00BFA6"/>
<path d="M607.5 256.728H537.243V313.133H607.5V256.728Z" fill="#00BFA6"/>
<path d="M722.53 256.728H652.272V313.133H722.53V256.728Z" fill="#00BFA6"/>
<path opacity="0.3" d="M377.442 336.358H307.184V392.763H377.442V336.358Z" fill="#00BFA6"/>
<path d="M492.471 336.358H422.213V392.763H492.471V336.358Z" fill="#00BFA6"/>
<path opacity="0.3" d="M607.5 336.358H537.243V392.763H607.5V336.358Z" fill="#00BFA6"/>
<path opacity="0.3" d="M722.53 336.358H652.272V392.763H722.53V336.358Z" fill="#00BFA6"/>
<path d="M387.085 250.092H316.827V306.497H387.085V250.092Z" stroke="#F2F2F2" stroke-width="2" stroke-miterlimit="10"/>
<path d="M502.114 250.092H431.857V306.497H502.114V250.092Z" stroke="#3F3D56" stroke-width="2" stroke-miterlimit="10"/>
<path d="M617.143 250.092H546.886V306.497H617.143V250.092Z" stroke="#3F3D56" stroke-width="2" stroke-miterlimit="10"/>
<path d="M732.173 250.092H661.915V306.497H732.173V250.092Z" stroke="#3F3D56" stroke-width="2" stroke-miterlimit="10"/>
<path d="M387.085 329.722H316.827V386.127H387.085V329.722Z" stroke="#3F3D56" stroke-width="2" stroke-miterlimit="10"/>
<path d="M502.114 329.722H431.857V386.127H502.114V329.722Z" stroke="#3F3D56" stroke-width="2" stroke-miterlimit="10"/>
<path d="M617.143 329.722H546.886V386.127H617.143V329.722Z" stroke="#3F3D56" stroke-width="2" stroke-miterlimit="10"/>
<path d="M732.173 329.722H661.915V386.127H732.173V329.722Z" stroke="#3F3D56" stroke-width="2" stroke-miterlimit="10"/>
<path d="M263.79 210.001C265.692 210.001 267.234 208.763 267.234 207.236C267.234 205.709 265.692 204.471 263.79 204.471C261.888 204.471 260.346 205.709 260.346 207.236C260.346 208.763 261.888 210.001 263.79 210.001Z" fill="#00BFA6"/>
<path d="M274.122 210.001C276.024 210.001 277.566 208.763 277.566 207.236C277.566 205.709 276.024 204.471 274.122 204.471C272.22 204.471 270.678 205.709 270.678 207.236C270.678 208.763 272.22 210.001 274.122 210.001Z" fill="#00BFA6"/>
<path d="M284.454 210.001C286.356 210.001 287.898 208.763 287.898 207.236C287.898 205.709 286.356 204.471 284.454 204.471C282.552 204.471 281.01 205.709 281.01 207.236C281.01 208.763 282.552 210.001 284.454 210.001Z" fill="#00BFA6"/>
<path d="M263.79 210.001C265.692 210.001 267.234 208.763 267.234 207.236C267.234 205.709 265.692 204.471 263.79 204.471C261.888 204.471 260.346 205.709 260.346 207.236C260.346 208.763 261.888 210.001 263.79 210.001Z" stroke="#3F3D56" stroke-width="2" stroke-miterlimit="10"/>
<path d="M274.122 210.001C276.024 210.001 277.566 208.763 277.566 207.236C277.566 205.709 276.024 204.471 274.122 204.471C272.22 204.471 270.678 205.709 270.678 207.236C270.678 208.763 272.22 210.001 274.122 210.001Z" stroke="#3F3D56" stroke-width="2" stroke-miterlimit="10"/>
<path d="M284.454 210.001C286.356 210.001 287.898 208.763 287.898 207.236C287.898 205.709 286.356 204.471 284.454 204.471C282.552 204.471 281.01 205.709 281.01 207.236C281.01 208.763 282.552 210.001 284.454 210.001Z" stroke="#3F3D56" stroke-width="2" stroke-miterlimit="10"/>
<path d="M244.497 114L208.436 179.751H430.498L244.497 114Z" fill="#F2F2F2"/>
<path d="M294.723 141.695C301.413 141.695 306.837 137.341 306.837 131.969C306.837 126.598 301.413 122.244 294.723 122.244C288.032 122.244 282.609 126.598 282.609 131.969C282.609 137.341 288.032 141.695 294.723 141.695Z" stroke="#3F3D56" stroke-width="2" stroke-miterlimit="10"/>
<path d="M799.939 448.666C818.983 448.666 834.421 436.272 834.421 420.983C834.421 405.695 818.983 393.301 799.939 393.301C780.896 393.301 765.458 405.695 765.458 420.983C765.458 436.272 780.896 448.666 799.939 448.666Z" fill="#00BFA6"/>
<path d="M259.872 352.683L261.341 359.367L281.911 351.504C281.911 351.504 300.522 342.067 297.094 348.751C293.665 355.435 283.38 357.008 283.38 357.008C283.38 357.008 261.341 372.736 256.444 370.377C251.546 368.018 248.608 355.042 248.608 355.042L259.872 352.683Z" fill="#9F616A"/>
<path opacity="0.1" d="M259.872 352.683L261.341 359.367L281.911 351.504C281.911 351.504 300.522 342.067 297.094 348.751C293.665 355.435 283.38 357.008 283.38 357.008C283.38 357.008 261.341 372.736 256.444 370.377C251.546 368.018 248.608 355.042 248.608 355.042L259.872 352.683Z" fill="black"/>
<path d="M284.36 410.875L283.87 430.928L270.647 469.854L259.872 468.674C259.872 468.674 262.81 458.451 261.341 453.34C259.872 448.228 268.688 435.253 268.688 435.253L260.851 406.157L284.36 410.875Z" fill="#9F616A"/>
<path d="M270.157 468.674C270.157 468.674 272.116 469.068 272.116 470.247C272.116 471.427 273.585 476.538 278.483 477.718C283.38 478.897 293.175 485.582 285.829 485.975C278.483 486.368 267.218 482.043 265.259 482.043C263.3 482.043 259.382 481.65 258.403 480.47C257.423 479.29 256.933 468.674 258.403 468.281C259.872 467.888 270.157 468.674 270.157 468.674Z" fill="#2F2E41"/>
<path d="M271.626 412.448L255.954 434.86L216.773 465.922L211.386 458.058C211.386 458.058 223.63 443.51 224.12 441.937C224.609 440.365 237.833 433.287 237.833 433.287C237.833 433.287 248.608 418.739 246.649 412.448C244.689 406.157 270.647 404.977 270.647 404.977L271.626 412.448Z" fill="#9F616A"/>
<path d="M217.263 463.956V467.102C217.263 467.495 206.488 476.931 207.468 478.504C208.447 480.077 212.366 484.402 207.958 484.795C203.55 485.188 200.122 482.043 200.122 478.111C200.122 474.179 199.142 460.811 200.611 460.417C202.081 460.024 210.406 459.238 211.386 456.879C212.366 454.519 217.263 463.956 217.263 463.956Z" fill="#2F2E41"/>
<path d="M243.955 330.468C250.446 330.468 255.709 326.243 255.709 321.031C255.709 315.82 250.446 311.595 243.955 311.595C237.463 311.595 232.201 315.82 232.201 321.031C232.201 326.243 237.463 330.468 243.955 330.468Z" fill="#9F616A"/>
<path d="M252.036 325.553C252.036 325.553 251.546 335.383 253.015 336.562C254.485 337.742 238.812 336.955 238.812 336.955C238.812 336.955 240.282 329.485 237.343 326.339C234.405 323.194 252.036 325.553 252.036 325.553Z" fill="#9F616A"/>
<path d="M284.055 366.52H354.312V310.116H284.055V366.52Z" fill="#00BFA6"/>
<path d="M238.323 331.844C238.323 331.844 250.077 333.81 255.464 337.349C260.851 340.887 264.28 342.853 265.749 343.247C267.218 343.64 270.647 345.606 271.626 353.469C272.606 361.333 272.116 367.231 281.421 372.343C290.727 377.454 320.112 406.943 313.255 412.841C306.399 418.739 302.481 420.705 299.542 417.953C296.604 415.2 296.114 411.268 289.747 415.594C283.38 419.919 278.483 425.03 275.544 421.098C272.606 417.166 255.954 416.38 227.058 419.526C198.162 422.671 205.019 411.268 209.427 405.764C213.835 400.259 243.22 378.24 247.628 375.488C252.036 372.736 243.71 359.367 239.302 357.008C234.894 354.649 230.976 336.955 238.323 331.844Z" fill="#2F2E41"/>
<path d="M253.015 357.401L254.485 364.086L275.054 356.222C275.054 356.222 293.665 346.785 290.237 353.469C286.809 360.154 276.524 361.726 276.524 361.726C276.524 361.726 254.485 377.454 249.587 375.095C244.69 372.736 241.751 359.761 241.751 359.761L253.015 357.401Z" fill="#9F616A"/>
<path d="M244.2 338.528C244.2 338.528 256.444 343.247 255.954 349.144C255.464 355.042 257.423 356.222 255.464 357.401C253.505 358.581 242.73 364.479 241.261 361.333C239.792 358.188 231.466 342.067 244.2 338.528Z" fill="#2F2E41"/>
<path d="M225.53 311.568C231.181 311.568 235.762 307.89 235.762 303.353C235.762 298.816 231.181 295.138 225.53 295.138C219.878 295.138 215.297 298.816 215.297 303.353C215.297 307.89 219.878 311.568 225.53 311.568Z" fill="#2F2E41"/>
<path d="M216.704 310.155C218.028 310.924 219.562 311.427 221.178 311.621C222.794 311.816 224.445 311.698 225.992 311.275C227.539 310.853 228.938 310.139 230.071 309.194C231.204 308.249 232.039 307.099 232.505 305.842C232.329 306.969 231.863 308.054 231.138 309.029C230.413 310.004 229.444 310.848 228.292 311.507C227.14 312.166 225.83 312.626 224.446 312.859C223.061 313.091 221.631 313.09 220.247 312.857C218.863 312.623 217.554 312.161 216.403 311.501C215.252 310.841 214.284 309.996 213.56 309.021C212.836 308.045 212.372 306.959 212.198 305.832C212.023 304.705 212.141 303.562 212.544 302.473C212.315 303.935 212.58 305.42 213.312 306.772C214.044 308.124 215.215 309.292 216.704 310.155V310.155Z" fill="#2F2E41"/>
<path d="M237.098 327.716C245.483 327.716 252.281 322.258 252.281 315.527C252.281 308.795 245.483 303.338 237.098 303.338C228.713 303.338 221.916 308.795 221.916 315.527C221.916 322.258 228.713 327.716 237.098 327.716Z" fill="#2F2E41"/>
<path d="M249.097 324.177C250.044 324.177 250.811 323.033 250.811 321.621C250.811 320.21 250.044 319.065 249.097 319.065C248.151 319.065 247.383 320.21 247.383 321.621C247.383 323.033 248.151 324.177 249.097 324.177Z" fill="#9F616A"/>
<path d="M250.703 214.762H798.297" stroke="#F2F2F2" stroke-width="2" stroke-miterlimit="10"/>
<path d="M98 484.917H951" stroke="#3F3D56" stroke-width="2" stroke-miterlimit="10"/>
</svg>
