<svg width="1050" height="600" viewBox="0 0 1050 600" fill="none" xmlns="http://www.w3.org/2000/svg">
<rect width="1050" height="600" fill="#8E4DFF"/>
<path d="M380.521 353.724V237.032H406.851C414.967 237.032 422.141 239.276 428.378 243.765C434.613 248.253 439.418 254.638 442.792 262.919C446.21 271.201 447.939 280.711 447.981 291.451V298.905C447.981 309.911 446.273 319.555 442.857 327.837C439.481 336.119 434.634 342.477 428.315 346.912C422.036 351.346 414.712 353.617 406.34 353.724H380.521ZM392.822 249.695V341.141H405.764C415.244 341.141 422.612 337.455 427.865 330.081C433.162 322.708 435.81 312.209 435.81 298.584V291.772C435.81 278.521 433.31 268.236 428.315 260.916C423.36 253.542 416.312 249.802 407.172 249.695H392.822ZM493.531 355.327C484.135 355.327 476.49 351.48 470.596 343.786C464.703 336.039 461.756 325.7 461.756 312.77V310.045C461.756 301.443 463.058 293.775 465.664 287.043C468.311 280.257 471.985 274.968 476.682 271.174C481.425 267.327 486.549 265.404 492.059 265.404C501.07 265.404 508.073 269.117 513.071 276.544C518.068 283.971 520.568 294.603 520.568 308.442V314.613H473.609C473.777 323.162 475.764 330.081 479.567 335.371C483.409 340.607 488.278 343.225 494.173 343.225C498.357 343.225 501.902 342.156 504.807 340.019C507.712 337.882 510.252 335.05 512.431 331.524L519.671 338.577C513.863 349.743 505.149 355.327 493.531 355.327ZM492.059 277.586C487.275 277.586 483.259 279.776 480.014 284.158C476.769 288.486 474.761 294.577 473.993 302.431H508.715V301.309C508.373 293.775 506.749 287.951 503.847 283.837C500.941 279.67 497.012 277.586 492.059 277.586ZM556.314 333.608L573.483 267.007H585.592L560.735 353.724H551.703L526.589 267.007H538.698L556.314 333.608ZM633.064 306.518H611.156V353.724H598.789V237.032H629.669C640.175 237.032 648.249 240.024 653.886 246.009C659.565 251.993 662.407 260.702 662.407 272.136C662.407 279.402 660.826 285.734 657.665 291.13C654.547 296.527 650.191 300.561 644.596 303.232L666.507 352.762V353.724H653.31L633.064 306.518ZM611.156 293.936H630.054C636.162 293.936 641.009 291.959 644.596 288.005C648.228 284.051 650.041 278.761 650.041 272.136C650.041 264.923 648.312 259.393 644.852 255.546C641.436 251.699 636.48 249.749 629.99 249.695H611.156V293.936ZM720.641 353.724C719.957 352.014 719.402 348.969 718.975 344.587C713.467 351.747 706.888 355.327 699.243 355.327C692.411 355.327 686.793 352.923 682.395 348.114C678.037 343.252 675.86 337.107 675.86 329.681C675.86 320.651 678.592 313.651 684.061 308.682C689.569 303.66 697.301 301.149 707.251 301.149H718.783V294.336C718.783 289.154 717.544 285.039 715.067 281.994C712.591 278.895 708.938 277.345 704.112 277.345C699.885 277.345 696.34 278.681 693.477 281.353C690.616 284.024 689.185 287.257 689.185 291.05H677.269C677.269 286.722 678.487 282.555 680.921 278.548C683.398 274.487 686.729 271.281 690.916 268.93C695.143 266.579 699.777 265.404 704.817 265.404C712.804 265.404 719.062 267.915 723.588 272.937C728.115 277.906 730.465 284.772 730.636 293.535V333.447C730.636 341.408 731.447 347.74 733.07 352.442V353.724H720.641ZM700.974 342.424C704.688 342.424 708.212 341.221 711.543 338.817C714.875 336.413 717.288 333.287 718.783 329.44V311.648H709.493C694.972 311.648 687.711 316.964 687.711 327.597C687.711 332.245 688.95 335.879 691.427 338.497C693.906 341.115 697.087 342.424 700.974 342.424ZM746.331 309.644C746.331 296.34 748.85 285.654 753.89 277.586C758.932 269.464 765.529 265.404 773.688 265.404C781.801 265.404 788.23 268.877 792.97 275.823V230.621H804.823V353.724H793.931L793.354 344.427C788.614 351.694 782.014 355.327 773.559 355.327C765.529 355.327 758.974 351.213 753.89 342.985C748.85 334.756 746.331 324.017 746.331 310.766V309.644ZM758.182 311.327C758.182 321.158 759.806 328.852 763.053 334.409C766.298 339.966 770.782 342.744 776.506 342.744C784.022 342.744 789.512 338.523 792.97 330.081V290.249C789.425 282.074 783.98 277.987 776.635 277.987C770.824 277.987 766.298 280.792 763.053 286.402C759.806 292.012 758.182 300.32 758.182 311.327ZM866.067 353.724C865.386 352.014 864.83 348.969 864.401 344.587C858.893 351.747 852.317 355.327 844.672 355.327C837.837 355.327 832.221 352.923 827.821 348.114C823.466 343.252 821.287 337.107 821.287 329.681C821.287 320.651 824.021 313.651 829.487 308.682C834.998 303.66 842.727 301.149 852.68 301.149H864.209V294.336C864.209 289.154 862.972 285.039 860.493 281.994C858.017 278.895 854.367 277.345 849.54 277.345C845.311 277.345 841.766 278.681 838.906 281.353C836.043 284.024 834.613 287.257 834.613 291.05H822.697C822.697 286.722 823.913 282.555 826.347 278.548C828.826 274.487 832.156 271.281 836.342 268.93C840.571 266.579 845.203 265.404 850.243 265.404C858.23 265.404 864.488 267.915 869.015 272.937C873.541 277.906 875.891 284.772 876.062 293.535V333.447C876.062 341.408 876.873 347.74 878.497 352.442V353.724H866.067ZM846.401 342.424C850.117 342.424 853.64 341.221 856.972 338.817C860.301 336.413 862.715 333.287 864.209 329.44V311.648H854.922C840.4 311.648 833.14 316.964 833.14 327.597C833.14 332.245 834.377 335.879 836.856 338.497C839.332 341.115 842.514 342.424 846.401 342.424ZM928.146 280.311C926.354 279.937 924.409 279.75 922.317 279.75C914.543 279.75 909.269 283.891 906.492 292.172V353.724H894.642V267.007H906.174L906.366 277.025C910.25 269.277 915.761 265.404 922.893 265.404C925.201 265.404 926.951 265.778 928.146 266.526V280.311Z" fill="white"/>
<path d="M201.908 298.255C201.9 301.456 202.425 304.625 203.45 307.559C204.476 310.492 205.978 313.126 207.862 315.293C209.747 317.459 211.971 319.111 214.394 320.142C216.817 321.174 219.385 321.562 221.935 321.283C224.484 321.004 226.959 320.063 229.202 318.52C231.445 316.978 233.406 314.868 234.96 312.324C236.515 309.781 237.629 306.86 238.231 303.749C238.833 300.637 238.91 297.402 238.457 294.251L313.024 277.808C314.342 277.525 315.598 276.901 316.711 275.975C317.825 275.048 318.771 273.841 319.488 272.429C320.206 271.018 320.68 269.434 320.878 267.779C321.077 266.125 320.997 264.438 320.643 262.824C315.798 241.38 306.634 221.85 294.028 206.104C281.423 190.359 265.798 178.924 248.649 172.894C247.369 172.45 246.028 172.345 244.713 172.584C243.397 172.824 242.137 173.403 241.01 174.285C239.884 175.167 238.916 176.333 238.169 177.708C237.423 179.084 236.912 180.638 236.672 182.274L223.528 275.557C220.877 274.952 218.152 275.086 215.546 275.95C212.941 276.813 210.52 278.384 208.456 280.552C206.391 282.719 204.734 285.429 203.602 288.489C202.47 291.549 201.892 294.883 201.908 298.255Z" fill="white"/>
<path d="M206.535 248.867C208.097 248.16 209.481 246.945 210.545 245.349C211.609 243.752 212.314 241.83 212.589 239.78C212.825 238.05 212.754 236.276 212.38 234.584C212.006 232.892 211.339 231.324 210.426 229.991C209.55 228.663 208.45 227.591 207.206 226.853C205.962 226.115 204.604 225.727 203.227 225.718C202.182 225.716 201.144 225.935 200.157 226.365C190.427 230.625 181.72 237.905 174.851 247.522C167.983 257.14 163.178 268.78 160.886 281.354C158.595 293.928 158.891 307.024 161.749 319.416C164.606 331.807 169.93 343.089 177.223 352.204C184.515 361.32 193.538 367.97 203.445 371.534C213.353 375.098 223.822 375.458 233.871 372.581C243.92 369.703 253.221 363.682 260.903 355.082C268.585 346.481 274.396 335.583 277.793 323.406C278.287 321.655 278.435 319.781 278.224 317.944C278.013 316.106 277.45 314.36 276.582 312.854C275.698 311.291 274.529 310.014 273.172 309.13C271.814 308.245 270.308 307.779 268.777 307.769C268.212 307.771 267.647 307.835 267.09 307.959C265.452 308.303 263.916 309.186 262.639 310.516C261.363 311.847 260.393 313.579 259.827 315.533C257.493 323.896 253.5 331.38 248.222 337.285C242.945 343.19 236.555 347.323 229.653 349.296C222.751 351.27 215.561 351.02 208.756 348.569C201.953 346.118 195.757 341.547 190.75 335.284C185.743 329.021 182.089 321.27 180.13 312.758C178.171 304.247 177.97 295.252 179.547 286.617C181.125 277.982 184.428 269.989 189.148 263.386C193.868 256.784 199.85 251.788 206.535 248.867Z" fill="white"/>
</svg>
