<svg width="1050" height="600" viewBox="0 0 1050 600" fill="none" xmlns="http://www.w3.org/2000/svg">
<rect width="1050" height="600" fill="#7159C1"/>
<path d="M512.289 209.101C512.289 191.506 504.467 170 468.289 170C450.689 170 443.844 174.888 435.044 180.753C425.267 187.596 412.556 196.393 387.133 196.393C370.511 196.393 358.778 193.461 349 189.551C359.756 215.944 386.156 249.18 453.622 249.18C488.822 248.202 512.289 227.674 512.289 209.101Z" fill="white"/>
<path d="M590.511 352.798C556.289 352.798 535.756 342.045 525 333.247C514.244 342.045 493.711 352.798 459.489 352.798C405.711 352.798 387.133 281.438 382.244 259.933C378.333 257.978 375.4 257 371.489 255.045L376.378 300.011C385.178 376.258 479.044 427.09 525 431C568.022 426.112 661.889 376.258 671.667 300.011L676.556 254.067C673.622 256.023 669.711 257.978 665.8 259.933C662.867 282.416 644.289 352.798 590.511 352.798Z" fill="white"/>
<path d="M615.933 180.753C607.133 174.888 599.311 170 582.689 170C546.511 170 538.689 191.506 538.689 209.101C538.689 227.674 562.156 248.202 596.378 248.202C663.845 248.202 690.245 214.966 701 188.573C691.222 192.483 679.489 195.416 663.845 195.416C638.422 196.393 625.711 187.596 615.933 180.753Z" fill="white"/>
</svg>
