<svg width="2476" height="605" viewBox="0 0 2476 605" fill="none" xmlns="http://www.w3.org/2000/svg">
<rect width="2476" height="605" fill="#333"/>
<rect width="2476" height="605" fill="#333"/>
<g opacity="0.5">
<path opacity="0.5" d="M296 552C434.071 552 546 440.071 546 302C546 163.929 434.071 52 296 52C157.929 52 46 163.929 46 302C46 440.071 157.929 552 296 552Z" fill="url(#paint0_linear)"/>
</g>
<path d="M296.487 545.13C431.647 545.13 541.215 435.562 541.215 300.403C541.215 165.243 431.647 55.6748 296.487 55.6748C161.328 55.6748 51.7593 165.243 51.7593 300.403C51.7593 435.562 161.328 545.13 296.487 545.13Z" fill="#F5F5F5"/>
<path d="M296.716 546.097C344.536 546.175 391.321 532.174 431.236 505.84C422.218 456.556 387.898 453.748 387.898 453.748H198.643C198.643 453.748 166.258 456.405 156.143 501.742C197.296 530.69 246.402 546.184 296.716 546.097V546.097Z" fill="#333"/>
<path d="M294.116 413.368C359.354 413.368 412.239 360.483 412.239 295.245C412.239 230.007 359.354 177.122 294.116 177.122C228.878 177.122 175.993 230.007 175.993 295.245C175.993 360.483 228.878 413.368 294.116 413.368Z" fill="#333333"/>
<path opacity="0.1" d="M255.993 393.633H331.681V454.185C331.681 464.219 327.695 473.843 320.601 480.939C313.507 488.036 303.885 492.025 293.851 492.029V492.029C283.814 492.029 274.189 488.042 267.091 480.944C259.994 473.847 256.007 464.222 256.007 454.185V393.633H255.993Z" fill="black"/>
<path d="M258.393 390.825H329.309C329.946 390.825 330.556 391.078 331.006 391.528C331.456 391.978 331.709 392.589 331.709 393.225V451.377C331.71 456.348 330.731 461.271 328.829 465.865C326.927 470.458 324.138 474.631 320.622 478.146C317.107 481.661 312.933 484.449 308.339 486.351C303.746 488.252 298.823 489.23 293.851 489.228V489.228C283.814 489.228 274.188 485.241 267.091 478.144C259.994 471.047 256.007 461.421 256.007 451.384V393.225C256.007 392.591 256.258 391.983 256.705 391.533C257.152 391.084 257.759 390.829 258.393 390.825V390.825Z" fill="#FDB797"/>
<path opacity="0.1" d="M256.129 422.215C280.522 431.328 307.374 431.402 331.817 422.423V413.11H256.129V422.215Z" fill="black"/>
<path d="M294.116 427.279C354.033 427.279 402.605 378.707 402.605 318.791C402.605 258.874 354.033 210.302 294.116 210.302C234.199 210.302 185.628 258.874 185.628 318.791C185.628 378.707 234.199 427.279 294.116 427.279Z" fill="#FDB797"/>
<path opacity="0.1" d="M216.838 220.109C216.838 220.109 262.562 312.917 391.537 259.02L361.509 211.936L308.278 192.831L216.838 220.109Z" fill="black"/>
<path d="M216.838 218.748C216.838 218.748 262.562 311.556 391.537 257.645L361.509 210.56L308.278 191.456L216.838 218.748Z" fill="#333333"/>
<path d="M216.437 212.458C219.52 202.915 224.848 194.251 231.974 187.193C253.314 166.097 288.299 161.649 306.244 137.595C310.542 144.271 307.218 154.536 299.797 157.401C316.989 157.287 336.91 155.782 346.63 141.642C349.033 147.234 349.798 153.394 348.839 159.405C347.879 165.415 345.232 171.03 341.208 175.596C356.444 176.312 372.726 186.628 373.686 201.85C374.345 211.993 367.956 221.592 359.653 227.408C351.351 233.225 341.236 235.897 331.315 238.082C302.347 244.479 197.533 271.248 216.437 212.458Z" fill="#333333"/>
<path d="M185.585 337.616C191.159 337.616 195.678 329.143 195.678 318.691C195.678 308.238 191.159 299.765 185.585 299.765C180.01 299.765 175.491 308.238 175.491 318.691C175.491 329.143 180.01 337.616 185.585 337.616Z" fill="#FDB797"/>
<path d="M402.59 337.616C408.164 337.616 412.683 329.143 412.683 318.691C412.683 308.238 408.164 299.765 402.59 299.765C397.016 299.765 392.497 308.238 392.497 318.691C392.497 329.143 397.016 337.616 402.59 337.616Z" fill="#FDB797"/>
<path d="M692.126 277.001C687.325 276.35 683.093 276.024 679.431 276.024C666.084 276.024 657.336 280.541 653.186 289.574V376H617.907V243.92H651.232L652.209 259.667C659.289 247.541 669.095 241.479 681.628 241.479C685.534 241.479 689.196 242.007 692.614 243.065L692.126 277.001ZM699.328 308.739C699.328 295.637 701.851 283.959 706.896 273.705C711.942 263.451 719.185 255.517 728.625 249.901C738.146 244.286 749.174 241.479 761.706 241.479C779.528 241.479 794.055 246.931 805.285 257.836C816.597 268.741 822.904 283.552 824.206 302.27L824.45 311.303C824.45 331.566 818.794 347.842 807.482 360.131C796.171 372.338 780.993 378.441 761.95 378.441C742.907 378.441 727.689 372.338 716.296 360.131C704.984 347.924 699.328 331.322 699.328 310.326V308.739ZM734.606 311.303C734.606 323.835 736.966 333.438 741.687 340.111C746.407 346.703 753.161 349.999 761.95 349.999C770.495 349.999 777.168 346.744 781.97 340.233C786.771 333.642 789.172 323.144 789.172 308.739C789.172 296.451 786.771 286.929 781.97 280.175C777.168 273.42 770.414 270.043 761.706 270.043C753.08 270.043 746.407 273.42 741.687 280.175C736.966 286.848 734.606 297.224 734.606 311.303ZM878.649 243.92L879.748 259.179C889.188 247.379 901.843 241.479 917.712 241.479C931.709 241.479 942.126 245.588 948.962 253.808C955.798 262.027 959.297 274.315 959.46 290.673V376H924.182V291.527C924.182 284.04 922.554 278.629 919.299 275.292C916.044 271.874 910.632 270.165 903.063 270.165C893.135 270.165 885.689 274.397 880.725 282.86V376H845.446V243.92H878.649ZM1018.79 243.92L1019.88 259.179C1029.32 247.379 1041.98 241.479 1057.85 241.479C1071.85 241.479 1082.26 245.588 1089.1 253.808C1095.93 262.027 1099.43 274.315 1099.6 290.673V376H1064.32V291.527C1064.32 284.04 1062.69 278.629 1059.44 275.292C1056.18 271.874 1050.77 270.165 1043.2 270.165C1033.27 270.165 1025.83 274.397 1020.86 282.86V376H985.583V243.92H1018.79ZM1175.77 326.073L1200.18 243.92H1238.02L1184.92 396.508L1181.99 403.466C1174.1 420.718 1161.08 429.345 1142.93 429.345C1137.8 429.345 1132.6 428.572 1127.31 427.025V400.292L1132.68 400.414C1139.35 400.414 1144.32 399.397 1147.57 397.362C1150.91 395.328 1153.51 391.951 1155.38 387.23L1159.53 376.366L1113.27 243.92H1151.23L1175.77 326.073ZM1326.53 376C1324.9 372.826 1323.72 368.879 1322.99 364.159C1314.44 373.681 1303.33 378.441 1289.66 378.441C1276.72 378.441 1265.98 374.698 1257.43 367.211C1248.97 359.724 1244.74 350.284 1244.74 338.891C1244.74 324.893 1249.91 314.151 1260.24 306.664C1270.66 299.177 1285.67 295.393 1305.29 295.312H1321.52V287.743C1321.52 281.64 1319.93 276.757 1316.76 273.095C1313.67 269.433 1308.74 267.602 1301.99 267.602C1296.05 267.602 1291.37 269.026 1287.95 271.874C1284.61 274.722 1282.95 278.629 1282.95 283.593H1247.67C1247.67 275.943 1250.03 268.863 1254.75 262.353C1259.47 255.842 1266.14 250.756 1274.77 247.094C1283.39 243.35 1293.08 241.479 1303.82 241.479C1320.1 241.479 1333 245.588 1342.52 253.808C1352.12 261.946 1356.92 273.42 1356.92 288.231V345.482C1357 358.015 1358.75 367.496 1362.17 373.925V376H1326.53ZM1297.35 351.464C1302.56 351.464 1307.36 350.325 1311.75 348.046C1316.15 345.686 1319.4 342.553 1321.52 338.646V315.941H1308.34C1290.68 315.941 1281.28 322.045 1280.14 334.252L1280.02 336.327C1280.02 340.722 1281.56 344.343 1284.66 347.191C1287.75 350.04 1291.98 351.464 1297.35 351.464ZM1438.95 349.999C1445.46 349.999 1450.75 348.209 1454.82 344.628C1458.89 341.047 1461.01 336.286 1461.17 330.346H1494.25C1494.17 339.298 1491.73 347.517 1486.93 355.004C1482.12 362.41 1475.53 368.188 1467.15 372.338C1458.85 376.407 1449.65 378.441 1439.56 378.441C1420.68 378.441 1405.79 372.46 1394.88 360.497C1383.98 348.453 1378.53 331.851 1378.53 310.692V308.373C1378.53 288.028 1383.94 271.793 1394.76 259.667C1405.59 247.541 1420.44 241.479 1439.32 241.479C1455.84 241.479 1469.06 246.199 1478.99 255.639C1489 264.997 1494.09 277.489 1494.25 293.114H1461.17C1461.01 286.278 1458.89 280.744 1454.82 276.513C1450.75 272.2 1445.38 270.043 1438.71 270.043C1430.49 270.043 1424.26 273.054 1420.03 279.076C1415.88 285.017 1413.81 294.701 1413.81 308.129V311.791C1413.81 325.382 1415.88 335.147 1420.03 341.088C1424.18 347.029 1430.49 349.999 1438.95 349.999ZM1590.93 376C1589.3 372.826 1588.12 368.879 1587.39 364.159C1578.84 373.681 1567.74 378.441 1554.06 378.441C1541.12 378.441 1530.38 374.698 1521.84 367.211C1513.37 359.724 1509.14 350.284 1509.14 338.891C1509.14 324.893 1514.31 314.151 1524.65 306.664C1535.06 299.177 1550.08 295.393 1569.69 295.312H1585.92V287.743C1585.92 281.64 1584.34 276.757 1581.16 273.095C1578.07 269.433 1573.15 267.602 1566.39 267.602C1560.45 267.602 1555.77 269.026 1552.36 271.874C1549.02 274.722 1547.35 278.629 1547.35 283.593H1512.07C1512.07 275.943 1514.43 268.863 1519.15 262.353C1523.87 255.842 1530.55 250.756 1539.17 247.094C1547.8 243.35 1557.48 241.479 1568.22 241.479C1584.5 241.479 1597.4 245.588 1606.92 253.808C1616.52 261.946 1621.33 273.42 1621.33 288.231V345.482C1621.41 358.015 1623.16 367.496 1626.57 373.925V376H1590.93ZM1561.75 351.464C1566.96 351.464 1571.76 350.325 1576.16 348.046C1580.55 345.686 1583.81 342.553 1585.92 338.646V315.941H1572.74C1555.08 315.941 1545.68 322.045 1544.54 334.252L1544.42 336.327C1544.42 340.722 1545.97 344.343 1549.06 347.191C1552.15 350.04 1556.38 351.464 1561.75 351.464ZM1703.36 349.999C1709.87 349.999 1715.16 348.209 1719.23 344.628C1723.29 341.047 1725.41 336.286 1725.57 330.346H1758.65C1758.57 339.298 1756.13 347.517 1751.33 355.004C1746.53 362.41 1739.94 368.188 1731.55 372.338C1723.25 376.407 1714.06 378.441 1703.97 378.441C1685.09 378.441 1670.19 372.46 1659.29 360.497C1648.38 348.453 1642.93 331.851 1642.93 310.692V308.373C1642.93 288.028 1648.34 271.793 1659.17 259.667C1669.99 247.541 1684.84 241.479 1703.72 241.479C1720.24 241.479 1733.47 246.199 1743.4 255.639C1753.41 264.997 1758.49 277.489 1758.65 293.114H1725.57C1725.41 286.278 1723.29 280.744 1719.23 276.513C1715.16 272.2 1709.79 270.043 1703.11 270.043C1694.89 270.043 1688.67 273.054 1684.44 279.076C1680.29 285.017 1678.21 294.701 1678.21 308.129V311.791C1678.21 325.382 1680.29 335.147 1684.44 341.088C1688.59 347.029 1694.89 349.999 1703.36 349.999ZM1816.03 376H1780.63V243.92H1816.03V376ZM1778.55 209.74C1778.55 204.451 1780.3 200.097 1783.8 196.679C1787.38 193.261 1792.22 191.552 1798.33 191.552C1804.35 191.552 1809.15 193.261 1812.73 196.679C1816.31 200.097 1818.1 204.451 1818.1 209.74C1818.1 215.111 1816.27 219.506 1812.61 222.924C1809.03 226.342 1804.27 228.051 1798.33 228.051C1792.39 228.051 1787.58 226.342 1783.92 222.924C1780.34 219.506 1778.55 215.111 1778.55 209.74ZM1839.71 308.739C1839.71 295.637 1842.23 283.959 1847.28 273.705C1852.32 263.451 1859.57 255.517 1869.01 249.901C1878.53 244.286 1889.55 241.479 1902.09 241.479C1919.91 241.479 1934.44 246.931 1945.67 257.836C1956.98 268.741 1963.28 283.552 1964.59 302.27L1964.83 311.303C1964.83 331.566 1959.18 347.842 1947.86 360.131C1936.55 372.338 1921.37 378.441 1902.33 378.441C1883.29 378.441 1868.07 372.338 1856.68 360.131C1845.36 347.924 1839.71 331.322 1839.71 310.326V308.739ZM1874.99 311.303C1874.99 323.835 1877.35 333.438 1882.07 340.111C1886.79 346.703 1893.54 349.999 1902.33 349.999C1910.88 349.999 1917.55 346.744 1922.35 340.233C1927.15 333.642 1929.55 323.144 1929.55 308.739C1929.55 296.451 1927.15 286.929 1922.35 280.175C1917.55 273.42 1910.79 270.043 1902.09 270.043C1893.46 270.043 1886.79 273.42 1882.07 280.175C1877.35 286.848 1874.99 297.224 1874.99 311.303ZM1988.39 358.666C1988.39 353.051 1990.26 348.493 1994.01 344.994C1997.83 341.495 2002.59 339.745 2008.29 339.745C2014.07 339.745 2018.83 341.495 2022.57 344.994C2026.4 348.493 2028.31 353.051 2028.31 358.666C2028.31 364.2 2026.44 368.716 2022.69 372.216C2018.95 375.634 2014.15 377.343 2008.29 377.343C2002.51 377.343 1997.75 375.634 1994.01 372.216C1990.26 368.716 1988.39 364.2 1988.39 358.666ZM2053.82 308.983C2053.82 288.394 2058.42 271.996 2067.61 259.789C2076.89 247.582 2089.55 241.479 2105.58 241.479C2118.44 241.479 2129.06 246.28 2137.44 255.883V188.5H2172.84V376H2140.98L2139.27 361.962C2130.48 372.948 2119.17 378.441 2105.33 378.441C2089.79 378.441 2077.3 372.338 2067.86 360.131C2058.5 347.842 2053.82 330.793 2053.82 308.983ZM2089.1 311.547C2089.1 323.917 2091.26 333.397 2095.57 339.989C2099.88 346.581 2106.15 349.877 2114.37 349.877C2125.27 349.877 2132.96 345.279 2137.44 336.083V283.959C2133.04 274.763 2125.43 270.165 2114.61 270.165C2097.6 270.165 2089.1 283.959 2089.1 311.547ZM2260.97 378.441C2241.61 378.441 2225.82 372.501 2213.61 360.619C2201.48 348.738 2195.42 332.909 2195.42 313.134V309.716C2195.42 296.451 2197.99 284.61 2203.11 274.193C2208.24 263.695 2215.48 255.639 2224.84 250.023C2234.28 244.327 2245.02 241.479 2257.07 241.479C2275.13 241.479 2289.33 247.175 2299.67 258.568C2310.09 269.962 2315.29 286.116 2315.29 307.03V321.435H2231.19C2232.33 330.061 2235.75 336.978 2241.44 342.187C2247.22 347.395 2254.5 349.999 2263.29 349.999C2276.88 349.999 2287.5 345.076 2295.15 335.229L2312.49 354.638C2307.2 362.125 2300.04 367.984 2291 372.216C2281.97 376.366 2271.96 378.441 2260.97 378.441ZM2256.95 270.043C2249.95 270.043 2244.25 272.403 2239.86 277.123C2235.54 281.843 2232.78 288.598 2231.55 297.387H2280.63V294.579C2280.46 286.767 2278.35 280.744 2274.28 276.513C2270.21 272.2 2264.43 270.043 2256.95 270.043ZM2383.17 332.909L2407.7 243.92H2444.57L2400.01 376H2366.32L2321.76 243.92H2358.63L2383.17 332.909Z" fill="white"/>
<defs>
<linearGradient id="paint0_linear" x1="296" y1="552" x2="296" y2="52" gradientUnits="userSpaceOnUse">
<stop stop-color="#808080" stop-opacity="0.25"/>
<stop offset="0.54" stop-color="#808080" stop-opacity="0.12"/>
<stop offset="1" stop-color="#808080" stop-opacity="0.1"/>
</linearGradient>
</defs>
</svg>
