<svg width="1050" height="600" viewBox="0 0 1050 600" fill="none" xmlns="http://www.w3.org/2000/svg">
<rect width="1050" height="600" fill="#F8F8F8"/>
<g clip-path="url(#clip0)">
<path opacity="0.1" d="M968 362.058C968.011 374.038 966.225 385.962 962.695 397.491C959.283 408.606 954.263 419.246 947.771 429.124C947.771 464.914 921.578 495.847 883.559 510.563C867.672 516.651 850.63 519.759 833.427 519.707H250.193C219.02 519.707 190.132 511.949 166.441 498.733C159.661 494.968 153.229 490.693 147.211 485.953C120.879 465.079 104.553 436.232 104.553 404.371C89.7744 383.38 81.9382 358.876 82.0001 333.847C82.0001 281.44 115.605 236.378 163.746 216.482C170.139 213.841 176.744 211.663 183.503 209.967C185.893 209.367 188.31 208.829 190.752 208.352C197.262 207.074 203.866 206.238 210.509 205.852C212.91 205.714 215.323 205.635 217.75 205.616H219.082C221.762 205.616 224.418 205.702 227.059 205.845L227.927 204.488C228.99 202.849 230.08 201.228 231.195 199.623C233.209 196.699 235.32 193.817 237.53 190.979C239.843 187.983 242.257 185.035 244.772 182.135L245.414 181.42C246.839 179.782 248.296 178.163 249.782 176.563C254.429 171.567 259.334 166.721 264.498 162.025C320.345 111.533 407.837 79.0286 506.196 79.0286C582.73 79.0286 652.688 98.7097 706.274 131.228C726.574 120.632 749.507 115.071 772.832 115.09C848.53 115.09 909.914 172.505 909.914 243.328C909.903 247.81 909.645 252.287 909.14 256.744C927.387 268.659 942.26 284.446 952.504 302.775C962.748 321.104 968.063 341.437 968 362.058V362.058Z" fill="#00BFA6"/>
<path opacity="0.2" d="M264.513 161.997V176.534H249.798C254.409 171.543 259.314 166.697 264.513 161.997Z" fill="#00BFA6"/>
<path opacity="0.2" d="M291.519 158.31H271.762V176.534H291.519V158.31Z" fill="#00BFA6"/>
<path opacity="0.2" d="M318.517 158.31H298.76V176.534H318.517V158.31Z" fill="#00BFA6"/>
<path opacity="0.2" d="M345.523 158.31H325.766V176.534H345.523V158.31Z" fill="#00BFA6"/>
<path opacity="0.2" d="M372.521 158.31H352.764V176.534H372.521V158.31Z" fill="#00BFA6"/>
<path opacity="0.2" d="M399.527 158.31H379.77V176.534H399.527V158.31Z" fill="#00BFA6"/>
<path d="M426.533 158.31H406.776V176.534H426.533V158.31Z" fill="#00BFA6"/>
<path opacity="0.2" d="M453.531 158.31H433.775V176.534H453.531V158.31Z" fill="#00BFA6"/>
<path opacity="0.2" d="M480.537 158.31H460.781V176.534H480.537V158.31Z" fill="#00BFA6"/>
<path opacity="0.2" d="M507.536 158.31H487.779V176.534H507.536V158.31Z" fill="#00BFA6"/>
<path d="M534.542 158.31H514.785V176.534H534.542V158.31Z" fill="#00BFA6"/>
<path opacity="0.2" d="M561.547 158.31H541.791V176.534H561.547V158.31Z" fill="#00BFA6"/>
<path opacity="0.2" d="M588.546 158.31H568.789V176.534H588.546V158.31Z" fill="#00BFA6"/>
<path opacity="0.2" d="M615.552 158.31H595.795V176.534H615.552V158.31Z" fill="#00BFA6"/>
<path opacity="0.2" d="M642.558 158.31H622.801V176.534H642.558V158.31Z" fill="#00BFA6"/>
<path opacity="0.2" d="M669.556 158.31H649.799V176.534H669.556V158.31Z" fill="#00BFA6"/>
<path opacity="0.2" d="M696.562 158.31H676.805V176.534H696.562V158.31Z" fill="#00BFA6"/>
<path d="M723.56 158.31H703.803V176.534H723.56V158.31Z" fill="#00BFA6"/>
<path d="M750.566 158.31H730.809V176.534H750.566V158.31Z" fill="#00BFA6"/>
<path opacity="0.2" d="M777.572 158.31H757.815V176.534H777.572V158.31Z" fill="#00BFA6"/>
<path opacity="0.2" d="M804.57 158.31H784.813V176.534H804.57V158.31Z" fill="#00BFA6"/>
<path d="M831.576 158.31H811.819V176.534H831.576V158.31Z" fill="#00BFA6"/>
<path d="M858.574 158.31H838.818V176.534H858.574V158.31Z" fill="#00BFA6"/>
<path d="M237.515 190.972V199.616H231.179C233.193 196.672 235.305 193.791 237.515 190.972Z" fill="#00BFA6"/>
<path opacity="0.2" d="M264.513 181.392H244.756V199.616H264.513V181.392Z" fill="#00BFA6"/>
<path d="M291.519 181.392H271.762V199.616H291.519V181.392Z" fill="#00BFA6"/>
<path opacity="0.2" d="M318.517 181.392H298.76V199.616H318.517V181.392Z" fill="#00BFA6"/>
<path opacity="0.7" d="M345.523 181.392H325.766V199.616H345.523V181.392Z" fill="#00BFA6"/>
<path opacity="0.2" d="M372.521 181.392H352.764V199.616H372.521V181.392Z" fill="#00BFA6"/>
<path opacity="0.4" d="M399.527 181.392H379.77V199.616H399.527V181.392Z" fill="#00BFA6"/>
<path d="M426.533 181.392H406.776V199.616H426.533V181.392Z" fill="#00BFA6"/>
<path opacity="0.4" d="M453.531 181.392H433.775V199.616H453.531V181.392Z" fill="#00BFA6"/>
<path opacity="0.2" d="M480.537 181.392H460.781V199.616H480.537V181.392Z" fill="#00BFA6"/>
<path opacity="0.4" d="M507.536 181.392H487.779V199.616H507.536V181.392Z" fill="#00BFA6"/>
<path d="M534.542 181.392H514.785V199.616H534.542V181.392Z" fill="#00BFA6"/>
<path opacity="0.4" d="M561.547 181.392H541.791V199.616H561.547V181.392Z" fill="#00BFA6"/>
<path opacity="0.4" d="M588.546 181.392H568.789V199.616H588.546V181.392Z" fill="#00BFA6"/>
<path opacity="0.2" d="M615.552 181.392H595.795V199.616H615.552V181.392Z" fill="#00BFA6"/>
<path opacity="0.4" d="M642.558 181.392H622.801V199.616H642.558V181.392Z" fill="#00BFA6"/>
<path opacity="0.4" d="M669.556 181.392H649.799V199.616H669.556V181.392Z" fill="#00BFA6"/>
<path opacity="0.2" d="M696.562 181.392H676.805V199.616H696.562V181.392Z" fill="#00BFA6"/>
<path opacity="0.2" d="M723.56 181.392H703.803V199.616H723.56V181.392Z" fill="#00BFA6"/>
<path opacity="0.4" d="M750.566 181.392H730.809V199.616H750.566V181.392Z" fill="#00BFA6"/>
<path opacity="0.2" d="M777.572 181.392H757.815V199.616H777.572V181.392Z" fill="#00BFA6"/>
<path d="M804.57 181.392H784.813V199.616H804.57V181.392Z" fill="#00BFA6"/>
<path d="M831.576 181.392H811.819V199.616H831.576V181.392Z" fill="#00BFA6"/>
<path d="M858.574 181.392H838.818V199.616H858.574V181.392Z" fill="#00BFA6"/>
<path opacity="0.2" d="M183.503 209.967V222.704H163.746V216.482C170.139 213.842 176.744 211.663 183.503 209.967V209.967Z" fill="#00BFA6"/>
<path opacity="0.2" d="M210.509 205.852V222.704H190.752V208.352L210.509 205.852Z" fill="#00BFA6"/>
<path d="M237.507 204.48H217.75V222.704H237.507V204.48Z" fill="#00BFA6"/>
<path opacity="0.7" d="M264.513 204.48H244.756V222.704H264.513V204.48Z" fill="#00BFA6"/>
<path d="M291.519 204.48H271.762V222.704H291.519V204.48Z" fill="#00BFA6"/>
<path opacity="0.7" d="M318.517 204.48H298.76V222.704H318.517V204.48Z" fill="#00BFA6"/>
<path opacity="0.7" d="M345.523 204.48H325.766V222.704H345.523V204.48Z" fill="#00BFA6"/>
<path opacity="0.2" d="M372.521 204.48H352.764V222.704H372.521V204.48Z" fill="#00BFA6"/>
<path opacity="0.4" d="M399.527 204.48H379.77V222.704H399.527V204.48Z" fill="#00BFA6"/>
<path opacity="0.4" d="M426.533 204.48H406.776V222.704H426.533V204.48Z" fill="#00BFA6"/>
<path d="M453.531 204.48H433.775V222.704H453.531V204.48Z" fill="#00BFA6"/>
<path opacity="0.2" d="M480.537 204.48H460.781V222.704H480.537V204.48Z" fill="#00BFA6"/>
<path opacity="0.4" d="M507.536 204.48H487.779V222.704H507.536V204.48Z" fill="#00BFA6"/>
<path d="M534.542 204.48H514.785V222.704H534.542V204.48Z" fill="#00BFA6"/>
<path opacity="0.2" d="M561.547 204.48H541.791V222.704H561.547V204.48Z" fill="#00BFA6"/>
<path opacity="0.4" d="M588.546 204.48H568.789V222.704H588.546V204.48Z" fill="#00BFA6"/>
<path opacity="0.2" d="M615.552 204.48H595.795V222.704H615.552V204.48Z" fill="#00BFA6"/>
<path d="M642.558 204.48H622.801V222.704H642.558V204.48Z" fill="#00BFA6"/>
<path opacity="0.2" d="M669.556 204.48H649.799V222.704H669.556V204.48Z" fill="#00BFA6"/>
<path opacity="0.7" d="M696.562 204.48H676.805V222.704H696.562V204.48Z" fill="#00BFA6"/>
<path opacity="0.7" d="M723.56 204.48H703.803V222.704H723.56V204.48Z" fill="#00BFA6"/>
<path opacity="0.4" d="M750.566 204.48H730.809V222.704H750.566V204.48Z" fill="#00BFA6"/>
<path opacity="0.2" d="M777.572 204.48H757.815V222.704H777.572V204.48Z" fill="#00BFA6"/>
<path d="M804.57 204.48H784.813V222.704H804.57V204.48Z" fill="#00BFA6"/>
<path d="M831.576 204.48H811.819V222.704H831.576V204.48Z" fill="#00BFA6"/>
<path d="M858.574 204.48H838.818V222.704H858.574V204.48Z" fill="#00BFA6"/>
<path opacity="0.2" d="M183.503 227.562H163.746V245.786H183.503V227.562Z" fill="#00BFA6"/>
<path opacity="0.2" d="M210.509 227.562H190.752V245.786H210.509V227.562Z" fill="#00BFA6"/>
<path opacity="0.2" d="M237.507 227.562H217.75V245.786H237.507V227.562Z" fill="#00BFA6"/>
<path opacity="0.2" d="M264.513 227.562H244.756V245.786H264.513V227.562Z" fill="#00BFA6"/>
<path d="M291.519 227.562H271.762V245.786H291.519V227.562Z" fill="#00BFA6"/>
<path opacity="0.7" d="M318.517 227.562H298.76V245.786H318.517V227.562Z" fill="#00BFA6"/>
<path opacity="0.7" d="M345.523 227.562H325.766V245.786H345.523V227.562Z" fill="#00BFA6"/>
<path opacity="0.2" d="M372.521 227.562H352.764V245.786H372.521V227.562Z" fill="#00BFA6"/>
<path opacity="0.2" d="M399.527 227.562H379.77V245.786H399.527V227.562Z" fill="#00BFA6"/>
<path opacity="0.4" d="M426.533 227.562H406.776V245.786H426.533V227.562Z" fill="#00BFA6"/>
<path opacity="0.4" d="M453.531 227.562H433.775V245.786H453.531V227.562Z" fill="#00BFA6"/>
<path d="M480.537 227.562H460.781V245.786H480.537V227.562Z" fill="#00BFA6"/>
<path opacity="0.2" d="M507.536 227.562H487.779V245.786H507.536V227.562Z" fill="#00BFA6"/>
<path opacity="0.4" d="M534.542 227.562H514.785V245.786H534.542V227.562Z" fill="#00BFA6"/>
<path opacity="0.4" d="M561.547 227.562H541.791V245.786H561.547V227.562Z" fill="#00BFA6"/>
<path opacity="0.4" d="M588.546 227.562H568.789V245.786H588.546V227.562Z" fill="#00BFA6"/>
<path opacity="0.4" d="M615.552 227.562H595.795V245.786H615.552V227.562Z" fill="#00BFA6"/>
<path opacity="0.2" d="M642.558 227.562H622.801V245.786H642.558V227.562Z" fill="#00BFA6"/>
<path opacity="0.2" d="M669.556 227.562H649.799V245.786H669.556V227.562Z" fill="#00BFA6"/>
<path opacity="0.2" d="M696.562 227.562H676.805V245.786H696.562V227.562Z" fill="#00BFA6"/>
<path opacity="0.2" d="M723.56 227.562H703.803V245.786H723.56V227.562Z" fill="#00BFA6"/>
<path opacity="0.7" d="M750.566 227.562H730.809V245.786H750.566V227.562Z" fill="#00BFA6"/>
<path opacity="0.7" d="M777.572 227.562H757.815V245.786H777.572V227.562Z" fill="#00BFA6"/>
<path opacity="0.4" d="M804.57 227.562H784.813V245.786H804.57V227.562Z" fill="#00BFA6"/>
<path opacity="0.2" d="M831.576 227.562H811.819V245.786H831.576V227.562Z" fill="#00BFA6"/>
<path d="M858.574 227.562H838.818V245.786H858.574V227.562Z" fill="#00BFA6"/>
<path opacity="0.2" d="M183.503 250.651H163.746V268.875H183.503V250.651Z" fill="#00BFA6"/>
<path opacity="0.2" d="M210.509 250.651H190.752V268.875H210.509V250.651Z" fill="#00BFA6"/>
<path opacity="0.4" d="M237.507 250.651H217.75V268.875H237.507V250.651Z" fill="#00BFA6"/>
<path opacity="0.2" d="M264.513 250.651H244.756V268.875H264.513V250.651Z" fill="#00BFA6"/>
<path opacity="0.2" d="M291.519 250.651H271.762V268.875H291.519V250.651Z" fill="#00BFA6"/>
<path opacity="0.7" d="M318.517 250.651H298.76V268.875H318.517V250.651Z" fill="#00BFA6"/>
<path opacity="0.7" d="M345.523 250.651H325.766V268.875H345.523V250.651Z" fill="#00BFA6"/>
<path opacity="0.2" d="M372.521 250.651H352.764V268.875H372.521V250.651Z" fill="#00BFA6"/>
<path opacity="0.2" d="M399.527 250.651H379.77V268.875H399.527V250.651Z" fill="#00BFA6"/>
<path opacity="0.4" d="M426.533 250.651H406.776V268.875H426.533V250.651Z" fill="#00BFA6"/>
<path d="M453.531 250.651H433.775V268.875H453.531V250.651Z" fill="#00BFA6"/>
<path opacity="0.2" d="M480.537 250.651H460.781V268.875H480.537V250.651Z" fill="#00BFA6"/>
<path d="M507.536 250.651H487.779V268.875H507.536V250.651Z" fill="#00BFA6"/>
<path d="M534.542 250.651H514.785V268.875H534.542V250.651Z" fill="#00BFA6"/>
<path d="M561.547 250.651H541.791V268.875H561.547V250.651Z" fill="#00BFA6"/>
<path opacity="0.2" d="M588.546 250.651H568.789V268.875H588.546V250.651Z" fill="#00BFA6"/>
<path d="M615.552 250.651H595.795V268.875H615.552V250.651Z" fill="#00BFA6"/>
<path opacity="0.2" d="M642.558 250.651H622.801V268.875H642.558V250.651Z" fill="#00BFA6"/>
<path opacity="0.2" d="M669.556 250.651H649.799V268.875H669.556V250.651Z" fill="#00BFA6"/>
<path opacity="0.2" d="M696.562 250.651H676.805V268.875H696.562V250.651Z" fill="#00BFA6"/>
<path opacity="0.2" d="M723.56 250.651H703.803V268.875H723.56V250.651Z" fill="#00BFA6"/>
<path opacity="0.2" d="M750.566 250.651H730.809V268.875H750.566V250.651Z" fill="#00BFA6"/>
<path opacity="0.7" d="M777.572 250.651H757.815V268.875H777.572V250.651Z" fill="#00BFA6"/>
<path opacity="0.2" d="M804.57 250.651H784.813V268.875H804.57V250.651Z" fill="#00BFA6"/>
<path opacity="0.2" d="M831.576 250.651H811.819V268.875H831.576V250.651Z" fill="#00BFA6"/>
<path d="M858.574 250.651H838.818V268.875H858.574V250.651Z" fill="#00BFA6"/>
<path opacity="0.2" d="M183.503 273.732H163.746V291.956H183.503V273.732Z" fill="#00BFA6"/>
<path opacity="0.2" d="M210.509 273.732H190.752V291.956H210.509V273.732Z" fill="#00BFA6"/>
<path opacity="0.2" d="M237.507 273.732H217.75V291.956H237.507V273.732Z" fill="#00BFA6"/>
<path opacity="0.4" d="M264.513 273.732H244.756V291.956H264.513V273.732Z" fill="#00BFA6"/>
<path opacity="0.2" d="M291.519 273.732H271.762V291.956H291.519V273.732Z" fill="#00BFA6"/>
<path opacity="0.2" d="M318.517 273.732H298.76V291.956H318.517V273.732Z" fill="#00BFA6"/>
<path opacity="0.7" d="M345.523 273.732H325.766V291.956H345.523V273.732Z" fill="#00BFA6"/>
<path opacity="0.2" d="M372.521 273.732H352.764V291.956H372.521V273.732Z" fill="#00BFA6"/>
<path opacity="0.2" d="M399.527 273.732H379.77V291.956H399.527V273.732Z" fill="#00BFA6"/>
<path opacity="0.2" d="M426.533 273.732H406.776V291.956H426.533V273.732Z" fill="#00BFA6"/>
<path d="M453.531 273.732H433.775V291.956H453.531V273.732Z" fill="#00BFA6"/>
<path opacity="0.2" d="M480.537 273.732H460.781V291.956H480.537V273.732Z" fill="#00BFA6"/>
<path d="M507.536 273.732H487.779V291.956H507.536V273.732Z" fill="#00BFA6"/>
<path d="M534.542 273.732H514.785V291.956H534.542V273.732Z" fill="#00BFA6"/>
<path opacity="0.2" d="M561.547 273.732H541.791V291.956H561.547V273.732Z" fill="#00BFA6"/>
<path opacity="0.2" d="M588.546 273.732H568.789V291.956H588.546V273.732Z" fill="#00BFA6"/>
<path opacity="0.2" d="M615.552 273.732H595.795V291.956H615.552V273.732Z" fill="#00BFA6"/>
<path opacity="0.2" d="M642.558 273.732H622.801V291.956H642.558V273.732Z" fill="#00BFA6"/>
<path opacity="0.2" d="M669.556 273.732H649.799V291.956H669.556V273.732Z" fill="#00BFA6"/>
<path opacity="0.2" d="M696.562 273.732H676.805V291.956H696.562V273.732Z" fill="#00BFA6"/>
<path opacity="0.2" d="M723.56 273.732H703.803V291.956H723.56V273.732Z" fill="#00BFA6"/>
<path opacity="0.2" d="M750.566 273.732H730.809V291.956H750.566V273.732Z" fill="#00BFA6"/>
<path opacity="0.2" d="M777.572 273.732H757.815V291.956H777.572V273.732Z" fill="#00BFA6"/>
<path opacity="0.2" d="M804.57 273.732H784.813V291.956H804.57V273.732Z" fill="#00BFA6"/>
<path opacity="0.4" d="M831.576 273.732H811.819V291.956H831.576V273.732Z" fill="#00BFA6"/>
<path d="M858.574 273.732H838.818V291.956H858.574V273.732Z" fill="#00BFA6"/>
<path opacity="0.7" d="M183.503 296.821H163.746V315.045H183.503V296.821Z" fill="#00BFA6"/>
<path opacity="0.7" d="M210.509 296.821H190.752V315.045H210.509V296.821Z" fill="#00BFA6"/>
<path opacity="0.7" d="M237.507 296.821H217.75V315.045H237.507V296.821Z" fill="#00BFA6"/>
<path opacity="0.7" d="M264.513 296.821H244.756V315.045H264.513V296.821Z" fill="#00BFA6"/>
<path opacity="0.7" d="M291.519 296.821H271.762V315.045H291.519V296.821Z" fill="#00BFA6"/>
<path opacity="0.2" d="M318.517 296.821H298.76V315.045H318.517V296.821Z" fill="#00BFA6"/>
<path opacity="0.2" d="M345.523 296.821H325.766V315.045H345.523V296.821Z" fill="#00BFA6"/>
<path opacity="0.2" d="M372.521 296.821H352.764V315.045H372.521V296.821Z" fill="#00BFA6"/>
<path opacity="0.2" d="M399.527 296.821H379.77V315.045H399.527V296.821Z" fill="#00BFA6"/>
<path opacity="0.2" d="M426.533 296.821H406.776V315.045H426.533V296.821Z" fill="#00BFA6"/>
<path opacity="0.2" d="M453.531 296.821H433.775V315.045H453.531V296.821Z" fill="#00BFA6"/>
<path d="M480.537 296.821H460.781V315.045H480.537V296.821Z" fill="#00BFA6"/>
<path opacity="0.2" d="M507.536 296.821H487.779V315.045H507.536V296.821Z" fill="#00BFA6"/>
<path opacity="0.2" d="M534.542 296.821H514.785V315.045H534.542V296.821Z" fill="#00BFA6"/>
<path opacity="0.2" d="M561.547 296.821H541.791V315.045H561.547V296.821Z" fill="#00BFA6"/>
<path d="M588.546 296.821H568.789V315.045H588.546V296.821Z" fill="#00BFA6"/>
<path opacity="0.2" d="M615.552 296.821H595.795V315.045H615.552V296.821Z" fill="#00BFA6"/>
<path opacity="0.2" d="M642.558 296.821H622.801V315.045H642.558V296.821Z" fill="#00BFA6"/>
<path opacity="0.2" d="M669.556 296.821H649.799V315.045H669.556V296.821Z" fill="#00BFA6"/>
<path opacity="0.2" d="M696.562 296.821H676.805V315.045H696.562V296.821Z" fill="#00BFA6"/>
<path opacity="0.2" d="M723.56 296.821H703.803V315.045H723.56V296.821Z" fill="#00BFA6"/>
<path opacity="0.2" d="M750.566 296.821H730.809V315.045H750.566V296.821Z" fill="#00BFA6"/>
<path opacity="0.2" d="M777.572 296.821H757.815V315.045H777.572V296.821Z" fill="#00BFA6"/>
<path opacity="0.2" d="M804.57 296.821H784.813V315.045H804.57V296.821Z" fill="#00BFA6"/>
<path opacity="0.2" d="M831.576 296.821H811.819V315.045H831.576V296.821Z" fill="#00BFA6"/>
<path d="M858.574 296.821H838.818V315.045H858.574V296.821Z" fill="#00BFA6"/>
<path d="M650.868 363.865C665.783 363.865 677.874 352.713 677.874 338.955C677.874 325.197 665.783 314.045 650.868 314.045C635.953 314.045 623.862 325.197 623.862 338.955C623.862 352.713 635.953 363.865 650.868 363.865Z" fill="#767D9F"/>
<path d="M649.466 307.265C652.161 318.114 654.448 329.044 656.328 340.055C656.893 343.327 657.397 346.778 656.111 349.871C655.034 352.45 652.843 354.464 651.123 356.722C649.404 358.979 648.103 361.872 649.148 364.458C650.194 367.044 653.245 368.459 656.157 369.188C664.491 371.259 673.374 369.752 681.669 367.509C685.424 366.617 689.025 365.241 692.364 363.423C695.88 361.365 698.761 358.508 701.41 355.564C713.5 342.041 721.415 325.811 728.865 309.68C724.078 310.082 719.256 309.427 714.797 307.77C710.338 306.113 706.371 303.501 703.222 300.15C700.171 296.843 697.933 292.235 699.652 288.191C694.61 290.742 688.624 290.913 683.194 292.656C679.828 293.842 676.587 295.313 673.514 297.05C669.806 299.026 666.12 301.041 662.454 303.093C658.264 305.422 654.337 307.494 649.466 307.265Z" fill="#AE6E79"/>
<path d="M705.948 325.968C701.216 334.462 695.059 342.627 686.269 347.685C677.479 352.743 665.645 354.114 656.839 349.114C652.502 346.67 649.218 342.956 645.431 339.827C641.644 336.698 636.912 334.019 631.823 334.426C626.216 334.876 621.825 338.912 618.069 342.777C612.369 348.649 606.862 354.771 602.827 361.722C595.082 375.081 593.247 390.697 593.588 405.842C593.928 420.987 596.306 436.053 596.36 451.198C596.438 469.829 593.014 488.31 589.552 506.662C621.383 503.048 653.253 510.949 685.154 513.942C705.569 515.878 726.139 515.835 746.663 515.785C750.272 515.785 754.113 515.699 757.118 513.856C758.955 512.62 760.44 510.993 761.447 509.113C764.282 504.291 765.42 498.79 766.21 493.354C768.216 479.623 768.278 465.722 768.332 451.863C768.472 418.287 768.603 384.59 763.98 351.278C762.841 343.084 761.385 334.847 757.978 327.182C754.57 319.517 749.009 312.466 741.233 308.358C736.238 305.715 724.66 301.114 718.774 303.779C712.167 306.751 709.116 320.281 705.948 325.968Z" fill="#767D9F"/>
<path d="M708.303 420.78C707.102 400.063 702.215 377.953 712.617 359.565C715.172 355.05 706.003 349.414 708.837 345.042C712.296 339.711 714.92 333.956 716.628 327.947C717.217 325.882 717.689 323.696 717.132 321.624C716.102 317.845 712.051 315.595 708.613 313.295C704.818 310.751 702.866 303 701.642 298.807C700.419 294.614 711.377 299.664 715.784 298.171C721.903 296.107 729.678 297.407 735.781 299.5C739.189 300.657 742.891 300.757 746.523 300.843C753.579 301.014 760.657 301.179 767.659 300.379C770.803 300.014 773.955 299.464 777.115 299.629C785.177 300.05 792.186 305.136 796.957 311.151C801.728 317.167 804.764 324.175 808.675 330.69C811.935 336.119 815.823 341.248 818.604 346.899C821.066 351.9 822.623 357.272 824.164 362.615L828.137 376.324C828.832 378.285 829.162 380.341 829.113 382.404C828.912 384.597 827.859 386.64 826.79 388.59C822.748 395.819 817.902 402.639 812.33 408.943C803.974 418.394 793.828 426.916 788.864 438.232C786.928 442.64 785.851 447.326 784.867 451.998C780.902 470.684 778.083 489.562 776.426 508.541C767.376 504.679 757.89 501.753 748.142 499.819C743.282 498.86 738.37 498.144 733.427 497.676C729.097 497.261 723.513 498.047 719.393 496.961C712.5 495.154 711.741 484.403 710.696 478.773C709.023 469.808 708.69 460.685 708.628 451.627C708.551 441.325 708.899 431.046 708.303 420.78Z" fill="#4C4981"/>
<path d="M556.932 382.039C560.192 399.184 563.786 416.379 570.872 432.489C570.694 432.646 570.516 432.789 570.338 432.931C569.71 433.424 569.06 433.889 568.378 434.36C566.791 435.389 565.048 436.26 563.732 437.603C563.233 438.117 562.839 438.71 562.57 439.354C562.327 439.856 562.201 440.4 562.201 440.95C562.201 441.501 562.327 442.045 562.57 442.547C558.876 444.054 554.585 443.59 550.441 443.447C546.871 443.326 543.409 443.447 540.544 445.254C536.563 447.783 535.362 452.641 534.72 457.056C534.482 458.666 534.278 460.278 534.108 461.892C533.943 463.393 533.808 464.897 533.705 466.407C533.354 471.401 533.305 476.41 533.558 481.409C533.599 482.324 533.653 483.238 533.721 484.152C521.066 483.874 509.534 477.787 498.621 471.872C496.128 470.522 493.556 469.1 491.938 466.872C490.446 464.683 489.815 462.088 490.149 459.521C490.149 459.156 490.218 458.806 490.272 458.435C490.619 456.315 491.214 454.236 492.046 452.234C495.46 443.707 500.493 435.809 506.908 428.91C509.681 425.923 512.802 423.002 514.095 419.251C514.661 417.615 514.87 415.879 515.443 414.25C518.014 407.192 527.292 403.856 530.468 397.005C531.242 395.369 531.599 393.576 532.559 392.005C533.423 390.699 534.539 389.549 535.85 388.611C536.416 388.176 537.004 387.754 537.585 387.333C543.027 383.399 548.27 379.244 553.315 374.867C554.255 374.052 555.184 373.228 556.103 372.395C555.98 375.628 556.258 378.864 556.932 382.039V382.039Z" fill="#4C4981"/>
<path d="M634.975 331.333C633.86 332.419 632.652 333.44 631.467 334.455L631.15 334.719L629.895 335.79C627.618 337.603 625.647 339.72 624.048 342.07L623.916 342.27C619.966 348.792 621.43 356.822 622.53 364.23C623.894 373.462 624.507 382.774 624.365 392.091C624.164 404.949 622.522 417.722 622.491 430.567C622.491 433.482 622.561 436.389 622.7 439.304C622.925 444.04 623.312 448.769 623.777 453.499C624.28 458.685 624.884 463.864 625.449 469.043C625.899 473.051 626.325 477.052 626.681 481.052C626.859 483.124 627.029 485.188 627.169 487.26C627.331 489.689 627.463 492.125 627.541 494.554C627.595 496.097 627.626 497.633 627.626 499.176C627.626 500.055 627.626 500.926 627.626 501.798C627.626 503.469 627.577 505.136 627.479 506.798C627.375 508.937 627.218 511.08 627.006 513.228C626.766 515.564 626.34 518.114 624.559 519.757C624.45 519.857 624.334 519.95 624.218 520.043L621.709 519.757C604.411 517.847 586.947 517.56 569.586 518.9C569.966 516.485 570.314 514.078 570.655 511.656C570.81 510.513 570.965 509.363 571.112 508.213C571.283 506.898 571.445 505.584 571.6 504.269C571.778 502.841 571.941 501.412 572.096 499.983C572.499 496.302 572.852 492.618 573.157 488.932C573.606 483.555 573.947 478.168 574.179 472.772C574.293 470.196 574.381 467.617 574.442 465.036C574.53 461.835 574.572 458.633 574.566 455.427C574.566 452.313 574.538 449.193 574.481 446.069C574.481 445.04 574.435 444.012 574.342 442.99C574.275 442.07 574.138 441.156 573.931 440.254C573.356 438.174 572.579 436.147 571.608 434.196C571.437 433.825 571.275 433.482 571.112 433.089C571.019 432.896 570.934 432.696 570.849 432.503C575.31 428.838 578.485 423.93 581.537 419.101C586.486 411.322 591.551 403.199 592.379 394.212C593.208 385.225 588.368 375.131 579.058 372.388C576.526 371.674 573.846 371.474 571.236 371.052C568.773 370.652 563.639 369.745 560.788 368.116C559.24 369.583 557.691 371.024 556.142 372.438C556.236 370.28 556.807 368.162 557.822 366.216L558.922 366.266C558.832 366.037 558.79 365.795 558.798 365.551C558.798 364.787 559.371 363.923 560.595 362.965C564.243 360.108 569.981 359.472 572.282 355.607C573.242 354 573.405 352.085 574.179 350.399C576.402 345.592 582.784 343.82 586.625 339.977C590.466 336.133 591.427 330.69 594.532 326.403C596.852 323.273 600.07 320.8 603.826 319.26C604.136 319.124 604.453 318.988 604.771 318.867C611.199 316.331 618.835 315.752 625.496 315.766C628.083 315.766 634.79 315.838 638.073 317.045C638.606 317.221 639.094 317.495 639.506 317.852C643.007 321.367 637.562 328.789 634.975 331.333Z" fill="#4C4981"/>
<path d="M558.086 365.716C564.068 364.055 570.349 363.507 576.564 364.104C582.778 364.701 588.802 366.432 594.285 369.195C599.861 372.052 604.864 376.039 607.931 381.182C612.539 388.897 612.338 398.199 612.012 407.007C611.85 411.415 611.641 415.979 609.534 419.937C607.094 424.516 602.494 427.66 597.801 430.231C594.861 431.962 591.639 433.247 588.259 434.039C583.055 435.082 577.649 434.196 572.406 433.325C566.706 432.353 560.587 431.181 556.63 427.267C554.306 424.995 553.036 422.045 551.781 419.158C549.979 414.991 548.172 410.829 546.36 406.671C543.223 399.449 542.162 393.441 546.306 386.404C548.188 383.197 550.488 380.196 552.347 376.967C553.276 375.324 556.606 366.137 558.086 365.716Z" fill="#4C4981"/>
<path d="M883.582 489.21V510.57C867.695 516.658 850.653 519.766 833.45 519.714H624.582C624.474 519.814 624.358 519.907 624.241 520L621.732 519.714H250.193C219.02 519.714 190.132 511.956 166.441 498.74V466.129L345.128 447.105H345.268L449.326 455.234L476.255 457.377L490.242 458.471L519.192 460.735L534.085 461.9L555.77 463.6L558.821 463.835L574.45 465.057L595.655 466.664L625.473 468.993L675.179 472.887L710.146 475.623L767.566 480.116L778.486 480.966L779.663 481.059L780.685 481.138L795.106 482.266L810.937 483.509L812.772 483.652L883.582 489.21Z" fill="#504F60"/>
<path d="M673.699 488.424L449.767 453.17L441.086 493.668L543.735 505.005L575.341 508.656L662.284 492.861L673.699 488.424Z" fill="#9C9CA1"/>
<path d="M557.784 506.627L669.974 487.174C670.535 487.075 671.113 487.092 671.667 487.223C672.22 487.355 672.735 487.597 673.175 487.934C673.615 488.271 673.968 488.693 674.21 489.17C674.452 489.648 674.577 490.169 674.574 490.696V490.696C674.577 491.532 674.261 492.343 673.682 492.986C673.103 493.63 672.298 494.066 671.407 494.218L561.842 513.142L557.784 506.627Z" fill="#9C9CA1"/>
<path d="M606.452 445.455C609.944 445.155 613.484 444.647 616.628 443.219C620.501 441.44 623.513 438.375 627.099 436.118C634.983 431.117 645.532 430.446 654.57 433.317C663.608 436.189 671.151 442.34 676.433 449.684C679.942 454.577 682.575 460.821 680.096 466.222C679.246 467.873 678.174 469.418 676.906 470.822L670.446 478.609C669.219 480.246 667.743 481.711 666.063 482.96C663.647 484.581 660.642 485.246 657.683 485.646C649.822 486.703 641.822 486.103 633.899 486.589C620.291 487.424 607.001 491.468 593.363 491.332C585.525 491.254 577.788 489.796 570.129 488.339L536.23 481.909C530.328 480.795 523.66 479.166 520.88 474.23C519.633 472.008 519.401 469.436 519.253 466.936C518.851 460.049 519.253 452.391 524.427 447.426C529.291 442.769 536.981 441.297 542.79 437.854C549.899 433.632 552.246 434.996 559.743 438.168C574.369 444.278 590.461 446.788 606.452 445.455V445.455Z" fill="#AE6E79"/>
<path opacity="0.05" d="M606.452 445.455C609.944 445.155 613.484 444.647 616.628 443.219C620.501 441.44 623.513 438.375 627.099 436.118C634.983 431.117 645.532 430.446 654.57 433.317C663.608 436.189 671.151 442.34 676.433 449.684C679.942 454.577 682.575 460.821 680.096 466.222C679.246 467.873 678.174 469.418 676.906 470.822L670.446 478.609C669.219 480.246 667.743 481.711 666.063 482.96C663.647 484.581 660.642 485.246 657.683 485.646C649.822 486.703 641.822 486.103 633.899 486.589C620.291 487.424 607.001 491.468 593.363 491.332C585.525 491.254 577.788 489.796 570.129 488.339L536.23 481.909C530.328 480.795 523.66 479.166 520.88 474.23C519.633 472.008 519.401 469.436 519.253 466.936C518.851 460.049 519.253 452.391 524.427 447.426C529.291 442.769 536.981 441.297 542.79 437.854C549.899 433.632 552.246 434.996 559.743 438.168C574.369 444.278 590.461 446.788 606.452 445.455V445.455Z" fill="black"/>
<path d="M742.581 435.661C733.071 439.054 723.506 442.461 713.546 444.483C696.848 447.876 679.376 447.341 662.81 451.22C654.059 453.277 645.361 456.592 636.37 455.92C632.35 455.62 628.47 454.492 624.559 453.634C602.587 448.634 577.61 450.255 559.766 463.114C553.663 467.508 548.668 472.987 544.137 478.83C543.168 480.093 542.513 481.537 542.218 483.06C541.924 484.582 541.999 486.146 542.436 487.64C542.873 489.133 543.663 490.519 544.748 491.698C545.834 492.877 547.188 493.821 548.714 494.461C555.654 497.405 563.087 499.234 570.694 499.869C580.863 500.698 591.078 499.369 601.193 498.04C616.202 496.075 631.219 494.104 646.19 491.896C651.565 491.103 656.94 490.282 662.346 489.653C701.247 485.117 740.854 490.632 779.857 486.846C783.799 486.46 787.811 485.96 791.396 484.41C800.473 480.481 804.965 470.122 803.091 461.021C801.217 451.92 793.983 444.355 785.278 439.711C777.982 435.803 770.114 434.225 761.99 432.567C754.446 430.946 749.846 433.089 742.581 435.661Z" fill="#AE6E79"/>
<path opacity="0.1" d="M826.015 381.253C830.306 386.44 831.22 393.398 830.755 399.892C830.29 406.385 828.618 412.807 828.37 419.33C828.029 428.274 830.368 437.189 829.973 446.105C829.694 452.341 828.091 458.456 826.194 464.443C823.955 471.508 820.718 479.102 813.647 482.495C804.26 487.003 784.573 484.467 774.699 487.996C775.597 482.831 784.209 475.351 785.108 470.186C785.727 466.614 786.354 462.943 785.688 459.364C784.837 454.799 781.932 450.748 778.486 447.376C773.003 442.011 765.846 437.975 757.985 436.661C750.125 435.346 730.879 436.425 724.59 441.004C723.816 436.275 738.221 431.717 743.286 430.696C745.811 430.174 748.707 430.467 750.729 428.988C754.601 426.188 751.79 420.608 751.976 416.129C752.123 412.557 754.384 409.286 754.841 405.714C755.616 399.999 751.573 394.176 753.16 388.569C753.749 386.497 755.058 384.675 755.964 382.704C758.721 376.667 757.513 369.78 756.042 363.365C755.128 359.336 754.237 354.793 756.669 351.357C758.923 348.149 765.32 359.572 769.417 359.043C782.947 357.293 795.191 348.042 806.119 355.614C811.688 359.472 812.416 363.472 814.638 368.98C816.799 374.224 822.399 376.91 826.015 381.253Z" fill="black"/>
<path d="M828.339 381.254C832.629 386.44 833.543 393.398 833.079 399.892C832.614 406.385 830.941 412.808 830.693 419.33C830.353 428.274 832.691 437.189 832.296 446.105C832.018 452.341 830.414 458.456 828.517 464.443C826.279 471.508 823.041 479.102 815.971 482.495C806.584 487.003 786.897 484.467 777.022 487.996C777.921 482.831 786.533 475.351 787.431 470.186C788.051 466.615 788.678 462.943 788.012 459.364C787.16 454.799 784.256 450.748 780.809 447.376C775.326 442.011 768.17 437.975 760.309 436.661C752.448 435.346 733.202 436.425 726.914 441.004C726.139 436.275 740.544 431.717 745.609 430.696C748.134 430.174 751.031 430.467 753.052 428.988C756.925 426.188 754.113 420.609 754.299 416.129C754.446 412.558 756.708 409.286 757.165 405.714C757.939 399.999 753.896 394.177 755.484 388.569C756.073 386.497 757.381 384.675 758.288 382.704C761.045 376.667 759.837 369.781 758.365 363.366C757.451 359.336 756.561 354.793 758.992 351.357C761.246 348.149 765.653 346.935 769.75 346.399C783.467 344.688 797.366 347.995 808.474 355.614C814.042 359.472 814.77 363.473 816.993 368.981C819.123 374.224 824.722 376.91 828.339 381.254Z" fill="#4C4981"/>
<path d="M315.892 347.406L358 490.953C358.516 492.712 359.602 494.284 361.111 495.459C362.621 496.635 364.483 497.358 366.449 497.533L555.979 514.328C557.524 514.465 559.082 514.259 560.522 513.727C561.963 513.195 563.244 512.352 564.259 511.269C565.274 510.186 565.992 508.894 566.355 507.503C566.717 506.111 566.712 504.659 566.342 503.269L520.229 330.118C519.681 328.06 518.358 326.248 516.498 325.004C514.638 323.76 512.359 323.165 510.068 323.324L324.512 336.126C323.087 336.228 321.704 336.619 320.462 337.271C319.22 337.922 318.149 338.819 317.326 339.896C316.502 340.974 315.947 342.205 315.699 343.503C315.451 344.802 315.517 346.134 315.892 347.406V347.406Z" fill="#9C9CA1"/>
<path d="M691.597 375.417C703.103 375.417 712.431 366.701 712.431 355.95C712.431 345.199 703.103 336.483 691.597 336.483C680.091 336.483 670.764 345.199 670.764 355.95C670.764 366.701 680.091 375.417 691.597 375.417Z" fill="white"/>
<path d="M708.706 320.438C708.706 320.438 713.097 332.483 700.14 337.548L698.482 340.22L706.599 347.606C706.599 347.606 716.605 330.768 715.521 324.789C715.521 324.789 713.972 318.717 708.706 320.438Z" fill="white"/>
<path d="M693.991 375.417C705.086 375.417 714.08 367.12 714.08 356.886C714.08 346.652 705.086 338.355 693.991 338.355C682.895 338.355 673.901 346.652 673.901 356.886C673.901 367.12 682.895 375.417 693.991 375.417Z" fill="#00BFA6"/>
<path d="M715.622 327.525L712.431 322.667L707.784 322.06C708.775 306.065 704.276 301.3 704.276 301.3L703.23 301.207L698.676 300.8L690.11 292.599V290.27C702.146 291.592 708.799 296.864 712.392 303.043C718.743 313.888 715.622 327.525 715.622 327.525Z" fill="#00BFA6"/>
<path opacity="0.1" d="M703.269 298.264V301.207L698.715 300.8L690.149 292.599C690.149 292.599 703.4 295.335 703.269 298.264Z" fill="black" stroke="#4C4981" stroke-miterlimit="10"/>
<path opacity="0.1" d="M715.622 327.525L712.431 322.667V303.072C718.743 313.888 715.622 327.525 715.622 327.525Z" fill="black" stroke="#4C4981" stroke-miterlimit="10"/>
<path d="M656.867 364.504C662.213 361.657 661.983 352.059 656.354 343.066C650.725 334.073 641.828 329.09 636.483 331.937C631.138 334.783 631.368 344.381 636.997 353.374C642.626 362.368 651.522 367.35 656.867 364.504Z" fill="white"/>
<path d="M649.691 346.649C655.321 355.643 662.229 361.651 656.885 364.508C651.542 367.366 635.975 365.937 630.344 356.936C624.714 347.935 629.825 335.505 635.169 332.647C640.513 329.79 644.052 337.633 649.691 346.649Z" fill="#00BFA6"/>
<path opacity="0.1" d="M699.822 281.855C699.822 310.594 678.501 338.291 647.344 338.291C632.38 338.291 618.029 332.808 607.449 323.048C596.868 313.288 590.923 300.051 590.923 286.248C590.923 272.446 596.868 259.209 607.449 249.449C618.029 239.689 632.38 234.206 647.344 234.206C678.501 234.234 699.822 253.108 699.822 281.855Z" fill="black"/>
<path d="M647.344 336.891C678.504 336.891 703.764 313.59 703.764 284.848C703.764 256.106 678.504 232.806 647.344 232.806C616.184 232.806 590.923 256.106 590.923 284.848C590.923 313.59 616.184 336.891 647.344 336.891Z" fill="#AE6E79"/>
<path d="M642.387 261.788C649.102 264.067 653.075 270.468 659.1 274.032C667.62 279.033 678.71 277.74 688.438 275.268C693.859 273.904 699.528 272.239 704.864 273.754C705.649 274.074 706.515 274.188 707.366 274.082C708.527 273.775 709.101 272.589 709.48 271.532C716.079 253.387 713.112 232.834 703.153 216.046C700.581 211.717 697.499 207.531 693.255 204.523C689.909 202.159 685.975 200.609 682.009 199.287C674.763 196.886 667.268 195.18 659.643 194.194C658.296 193.968 656.921 193.927 655.561 194.072C653.695 194.351 652.022 195.279 650.357 196.108C643.225 199.634 635.316 201.616 627.231 201.902C616.388 202.28 603.997 199.923 595.64 206.338C585.572 214.032 588.081 229.041 581.552 239.485C577.231 246.393 568.897 251.408 567.526 259.273C567.169 261.677 567.335 264.123 568.014 266.467C571.205 278.569 583.907 287.941 597.444 288.163C599.523 288.309 601.605 287.916 603.454 287.027C604.666 286.264 605.736 285.326 606.622 284.248C615.49 274.561 625.635 256.102 642.387 261.788Z" fill="#444053"/>
<path opacity="0.1" d="M709.48 266.267C709.101 267.325 708.527 268.51 707.366 268.818C706.515 268.923 705.649 268.81 704.864 268.489C699.528 266.974 693.828 268.639 688.445 270.003C678.71 272.475 667.596 273.797 659.108 268.768C653.075 265.196 649.11 258.766 642.387 256.523C625.635 250.808 615.49 269.296 606.599 278.983C605.712 280.061 604.643 281 603.431 281.762C601.582 282.651 599.5 283.044 597.421 282.898C583.93 282.677 571.221 273.304 567.991 261.202C567.813 260.488 567.658 259.774 567.542 259.059C567.542 259.123 567.542 259.181 567.503 259.245C567.146 261.649 567.312 264.094 567.991 266.439C571.182 278.54 583.891 287.913 597.421 288.134C599.5 288.281 601.582 287.887 603.431 286.998C604.643 286.236 605.712 285.297 606.599 284.22C615.49 274.533 625.635 256.073 642.387 261.76C649.11 264.038 653.075 270.439 659.108 274.004C667.627 279.005 678.71 277.712 688.445 275.24C693.867 273.875 699.528 272.211 704.864 273.725C705.649 274.046 706.515 274.16 707.366 274.054C708.527 273.747 709.101 272.561 709.48 271.504C712.142 264.079 713.317 256.27 712.95 248.458C712.722 254.517 711.553 260.514 709.48 266.267V266.267Z" fill="black"/>
</g>
<defs>
<clipPath id="clip0">
<rect width="886" height="441" fill="white" transform="translate(82 79)"/>
</clipPath>
</defs>
</svg>
